<svg width="76" height="18" viewBox="0 0 76 18" fill="none" xmlns="http://www.w3.org/2000/svg">
<path d="M8.11524 0.0116576C9.11271 -0.033724 10.1198 0.0491467 11.0807 0.335248C12.7566 0.818661 14.2826 1.83481 15.4012 3.20613C16.635 4.70372 17.3692 6.62553 17.4441 8.58681C17.5306 10.3843 17.077 12.2035 16.1488 13.7307C15.3762 15.0192 14.2826 16.1004 12.9988 16.8423C11.7668 17.5625 10.3581 17.9611 8.94166 17.9946C8.6034 18.0084 8.24209 18.0084 7.93843 17.8328C7.70011 17.6947 7.55982 17.4185 7.55597 17.1442C7.53291 16.7239 7.66936 16.3175 7.80966 15.9288C8.06912 15.2678 8.39968 14.6383 8.77638 14.0405C8.99163 13.6972 9.17613 13.2966 9.54321 13.0993C9.97372 12.8665 10.4792 12.8823 10.952 12.8783C11.6784 12.9138 12.4222 12.6514 12.945 12.1246C13.6272 11.4656 13.9117 10.406 13.6503 9.48063C13.5408 9.05641 13.2755 8.68941 13.2083 8.25335C13.1545 8.03236 13.2313 7.7877 13.3889 7.63182C13.6061 7.41281 13.8809 7.27074 14.1269 7.08921C14.6574 6.72222 15.0225 6.11647 15.1109 5.46534C15.2243 4.7274 14.9687 3.94013 14.444 3.41725C13.8329 2.77796 12.8527 2.55303 12.0321 2.86281C11.5977 3.04433 11.1403 3.1864 10.6714 3.21007C10.4369 3.20613 10.2024 3.15285 10.0006 3.03052C9.77768 2.89635 9.58357 2.72074 9.37024 2.57276C8.82442 2.18011 8.1902 1.9236 7.68666 1.46782C7.45988 1.2705 7.26 0.982429 7.31189 0.658839C7.36186 0.264216 7.75393 0.0274425 8.11524 0.0116576ZM10.5464 14.2694C10.0583 14.3878 9.70081 14.8988 9.75078 15.4118C9.78153 15.9801 10.3081 16.4556 10.8616 16.4122C11.4459 16.4003 11.9398 15.8163 11.8668 15.2184C11.8226 14.5772 11.1499 14.0878 10.5464 14.2694ZM8.72833 15.3921C8.42275 15.4907 8.34203 15.9485 8.59956 16.1458C8.83403 16.3648 9.25685 16.203 9.29529 15.8794C9.36063 15.5637 9.01853 15.2717 8.72833 15.3921ZM5.07865 1.18566C5.72056 1.10674 6.37785 1.5349 6.58157 2.16432C6.73532 2.60236 6.66998 3.11142 6.41244 3.4942C6.1011 3.96578 5.50146 4.22425 4.95757 4.10192C4.45788 4.01116 4.02737 3.61851 3.8717 3.12523C3.70449 2.62209 3.82557 2.02621 4.18881 1.64342C4.41944 1.38692 4.74232 1.2271 5.07865 1.18566ZM7.46372 3.08774C7.74816 2.9516 8.12101 3.13904 8.18443 3.45671C8.28437 3.80004 7.97494 4.1769 7.629 4.13546C7.34456 4.11771 7.10817 3.83555 7.137 3.54353C7.15429 3.34622 7.28306 3.16075 7.46372 3.08774ZM2.31304 3.13312C2.68973 2.97133 3.12024 3.43501 2.9415 3.81582C2.83003 4.1473 2.36685 4.25188 2.12854 4.00129C1.85563 3.7586 1.95941 3.23178 2.31304 3.13312ZM12.3761 3.48434C13.0468 3.29689 13.8137 3.61851 14.1692 4.2282C14.4671 4.70372 14.5055 5.33314 14.2672 5.84221C14.077 6.26643 13.7099 6.60186 13.2736 6.738C13.1141 6.7893 12.943 6.80114 12.7931 6.88006C12.4664 7.04186 12.2146 7.36545 12.1474 7.73245C12.0609 8.11721 12.1781 8.54932 12.4568 8.82358C13.0468 9.4609 13.1064 10.5284 12.5894 11.2308C12.2531 11.7221 11.6746 12.0141 11.0923 12.0161C10.5099 12.0181 9.93336 11.7201 9.5951 11.2308C9.32988 10.8638 9.2088 10.3922 9.25108 9.93642C9.2703 9.70556 9.27415 9.46484 9.18382 9.2478C8.99932 8.75058 8.47272 8.41515 7.95573 8.47631C7.70204 8.49013 7.49063 8.64995 7.25231 8.71901C6.96595 8.80582 6.66037 8.8295 6.36824 8.76439C6.17221 8.73479 5.99539 8.63614 5.8032 8.58483C5.44189 8.50591 5.04598 8.61838 4.77307 8.87488C4.46556 9.15901 4.30989 9.61283 4.40791 10.0292C4.55397 10.6941 4.30989 11.4301 3.80443 11.8681C3.20096 12.4146 2.24193 12.4758 1.57887 12.0102C0.93504 11.5899 0.610239 10.7336 0.796663 9.97588C0.954259 9.27937 1.52506 8.70125 2.20926 8.56116C2.58403 8.47039 2.97994 8.52367 3.33357 8.6756C3.66221 8.82358 4.0562 8.7782 4.36178 8.5947C4.66544 8.40528 4.88838 8.07577 4.93451 7.71272C4.97871 7.45621 4.873 7.20957 4.8634 6.95702C4.86147 6.57423 4.95372 6.18553 5.16321 5.86588C5.48801 5.33906 6.07996 4.99377 6.69112 4.99771C7.19658 4.97798 7.69435 5.19897 8.04605 5.56597C8.33818 5.87575 8.52268 6.28813 8.56112 6.71827C8.60533 7.03199 8.47272 7.35559 8.58226 7.66339C8.73217 8.23954 9.33757 8.63811 9.90837 8.53156C10.1352 8.50591 10.3216 8.35595 10.5388 8.29479C10.7406 8.22573 10.9616 8.22967 11.1518 8.12707C11.4632 7.9712 11.6977 7.67128 11.7841 7.32796C11.8898 6.94715 11.7803 6.51701 11.5228 6.22499C11.198 5.83826 11.0615 5.29565 11.1614 4.79646C11.2729 4.16309 11.7707 3.63429 12.3761 3.48434ZM9.52207 3.61259C9.70849 3.55734 9.89876 3.77438 9.8142 3.95591C9.75462 4.14533 9.46826 4.17098 9.37216 4.00327C9.27607 3.86317 9.35679 3.64416 9.52207 3.61259ZM1.70572 4.7787C2.26307 4.64058 2.88384 4.95036 3.10486 5.49691C3.25861 5.84221 3.24324 6.26051 3.06642 6.59594C2.81658 7.10697 2.19196 7.38913 1.65767 7.21944C1.13684 7.07738 0.74285 6.55055 0.763991 5.99216C0.754382 5.42785 1.17143 4.90301 1.70572 4.7787ZM9.70849 5.10624C10.0679 5.01745 10.4638 5.25225 10.558 5.62122C10.6944 6.03163 10.3773 6.50517 9.96411 6.55055C9.56435 6.61764 9.16075 6.26643 9.15691 5.8501C9.13577 5.50875 9.38754 5.18319 9.70849 5.10624ZM3.57572 7.45424C3.83518 7.32796 4.13884 7.63971 4.03314 7.91003C3.95818 8.17837 3.57188 8.23954 3.41813 8.01263C3.27014 7.83308 3.36047 7.52725 3.57572 7.45424ZM0.396909 7.71075C0.731319 7.60025 1.10801 7.89227 1.0984 8.25138C1.1157 8.6243 0.710178 8.92421 0.371924 8.79201C0.0394363 8.69138 -0.104706 8.24349 0.0836399 7.95147C0.152828 7.83308 0.268142 7.74823 0.396909 7.71075ZM7.79429 9.24188C7.97494 9.13139 8.23248 9.25569 8.26899 9.46682C8.33818 9.72332 8.03837 9.97391 7.80774 9.84368C7.56942 9.74108 7.56174 9.35632 7.79429 9.24188ZM6.33941 10.1101C6.96787 9.88709 7.71357 10.331 7.85194 10.996C8.02299 11.6254 7.60402 12.3298 6.99093 12.4817C6.52007 12.6159 5.9877 12.4127 5.71095 12.0003C5.36693 11.5208 5.43804 10.7849 5.87239 10.3883C6.00308 10.26 6.16644 10.1673 6.33941 10.1101ZM2.35916 13.3657C2.71856 13.2394 3.15099 13.4328 3.31435 13.786C3.44696 14.0484 3.42197 14.3818 3.25861 14.6245C3.12984 14.8297 2.90306 14.954 2.67051 14.9797C2.30343 15.0211 1.93443 14.7666 1.8268 14.4055C1.69034 13.9833 1.94211 13.49 2.35916 13.3657ZM7.41183 13.4565C7.67897 13.3183 8.02491 13.5689 7.98263 13.8748C7.96726 14.1964 7.54252 14.372 7.31766 14.1451C7.09087 13.9675 7.15045 13.565 7.41183 13.4565ZM5.16898 14.1549C5.47456 14.0918 5.80128 14.1234 6.07996 14.2674C6.56427 14.5042 6.88907 15.0527 6.86024 15.6052C6.85448 16.2011 6.43551 16.7614 5.87816 16.9272C5.43996 17.0692 4.93451 16.9706 4.5828 16.6667C4.29836 16.4299 4.11578 16.0748 4.07734 15.7038C3.99085 15.0014 4.49247 14.2891 5.16898 14.1549Z" fill="#29D0D0"/>
<path d="M74.6053 3.4917C75.0287 3.4939 75.4521 3.4917 75.8755 3.4917C75.8755 6.49935 75.8712 9.507 75.8777 12.5147C75.4521 12.5169 75.0309 12.5169 74.6053 12.5169C74.6053 9.5092 74.6053 6.49935 74.6053 3.4917ZM42.3787 4.06511C44.1227 4.05193 45.869 4.05852 47.613 4.06071C48.3808 4.06511 49.1245 4.51988 49.4514 5.21852C49.5874 5.49534 49.651 5.80731 49.6445 6.11488C49.6423 7.60443 49.6489 9.09397 49.6423 10.5835C49.6291 11.4403 48.9819 12.2225 48.1615 12.4422C47.817 12.5476 47.4529 12.5125 47.0975 12.5169C45.5289 12.5212 43.9582 12.5103 42.3896 12.5234C42.3633 9.70473 42.3874 6.88382 42.3787 4.06511ZM43.6489 5.33715C43.6445 7.30124 43.6467 9.26314 43.6467 11.2272C44.9695 11.2294 46.2924 11.2294 47.6152 11.2294C48.043 11.2602 48.4181 10.8515 48.3874 10.4319C48.3874 8.99291 48.3896 7.55609 48.3874 6.11708C48.394 5.82049 48.2119 5.53927 47.9487 5.40965C47.7776 5.31738 47.5779 5.33935 47.3936 5.33496C46.1454 5.33715 44.8971 5.33496 43.6489 5.33715ZM20.3355 5.42503C20.6053 4.66049 21.3732 4.10246 22.1849 4.10685C23.5494 4.10685 24.9117 4.10685 26.2763 4.10685C27.3183 4.08049 28.2485 5.00321 28.2616 6.04238C28.2682 8.17564 28.2638 10.3089 28.2638 12.4422C27.8492 12.4444 27.4368 12.4465 27.0222 12.4422C27.0265 11.2646 27.0244 10.0848 27.0244 8.90723C25.1728 8.90723 23.3212 8.90723 21.4719 8.90723C21.4719 10.0848 21.4741 11.2646 21.4719 12.4422C21.0529 12.4444 20.6361 12.4444 20.217 12.4422C20.2236 10.5066 20.2192 8.5689 20.2192 6.63117C20.2258 6.22693 20.1819 5.80731 20.3355 5.42503ZM21.4763 6.05776C21.4653 6.58284 21.4763 7.11011 21.4719 7.63958C23.3212 7.63738 25.1728 7.63958 27.0222 7.63738C27.0222 7.12988 27.0287 6.62238 27.0222 6.11488C27.02 5.8095 26.8225 5.5217 26.5439 5.40746C26.3662 5.33056 26.171 5.35693 25.9845 5.35034C24.7406 5.35473 23.4989 5.35034 22.2573 5.35253C21.8624 5.32837 21.4916 5.66231 21.4763 6.05776ZM50.8576 4.33314C51.3534 4.142 51.937 4.56602 51.9194 5.09549C51.9326 5.57662 51.4478 5.98746 50.9761 5.8864C50.5066 5.81829 50.1863 5.28223 50.3553 4.83624C50.4364 4.60556 50.6251 4.41223 50.8576 4.33314ZM60.1351 4.33314C60.6814 4.11784 61.311 4.66268 61.1838 5.2339C61.107 5.8095 60.3479 6.11049 59.9026 5.73041C59.398 5.3767 59.545 4.5067 60.1351 4.33314ZM61.7673 4.89996C62.1907 4.90655 62.6119 4.90215 63.0353 4.90435C63.0441 5.3767 63.0375 5.84905 63.0397 6.3214C63.7856 6.3214 64.5315 6.3192 65.2752 6.33458C65.4441 6.42905 65.5165 6.64435 65.6415 6.79155C65.8258 7.05738 66.0167 7.32102 66.1922 7.59344C65.1414 7.59564 64.0905 7.60882 63.0397 7.60662C63.0419 8.64799 63.0375 9.68935 63.0397 10.7307C63.0156 10.9746 63.213 11.225 63.4653 11.225C64.2353 11.2382 65.0053 11.2206 65.7754 11.2338C65.8872 11.7457 66.1966 12.1917 66.5936 12.5256C65.5516 12.5059 64.5074 12.5234 63.4631 12.5147C62.7633 12.5015 62.1074 12.0225 61.8704 11.3656C61.7059 10.9526 61.7673 10.5022 61.7563 10.0694C61.7651 8.347 61.7432 6.62238 61.7673 4.89996ZM30.1286 6.4664C30.3874 6.35655 30.6704 6.32359 30.949 6.32799C31.8287 6.33018 32.7084 6.32799 33.586 6.32579C33.6825 6.33897 33.8229 6.29284 33.8799 6.39829C34.1607 6.79374 34.4372 7.1914 34.707 7.59344C33.4061 7.60443 32.103 7.59344 30.8021 7.59784C30.5322 7.57587 30.2975 7.82412 30.3216 8.09215C30.3172 9.54215 30.3216 10.9922 30.3194 12.4422C29.9004 12.4444 29.4836 12.4465 29.0668 12.4422C29.0712 10.9702 29.0668 9.49821 29.069 8.02624C29.0668 7.35617 29.5143 6.71905 30.1286 6.4664ZM34.492 6.33238C36.7231 6.3214 38.9542 6.33238 41.1852 6.32579C41.3827 6.31481 41.6021 6.36314 41.7183 6.5367C41.9114 6.76738 41.8829 7.08155 41.8807 7.36276C41.8807 7.59784 41.8061 7.86806 41.5955 7.99768C39.7834 9.06321 37.9472 10.0914 36.1439 11.1723C38.0569 11.1921 39.9699 11.1767 41.8807 11.1811C41.8741 11.6029 41.8916 12.0269 41.8719 12.4487C39.5465 12.4356 37.2211 12.4509 34.8957 12.4422C34.5578 12.4224 34.356 12.0687 34.3626 11.7589C34.345 11.4008 34.3231 10.9394 34.6872 10.7395C36.4927 9.68935 38.3092 8.65458 40.1125 7.59784C38.522 7.58905 36.9315 7.60662 35.3432 7.59124C35.0141 7.21117 34.7772 6.74981 34.492 6.33238ZM50.5022 6.3214C50.93 6.3214 51.3578 6.3192 51.7834 6.32359C51.7856 8.38655 51.7856 10.4517 51.7856 12.5147C51.3578 12.519 50.93 12.5169 50.5022 12.5147C50.5022 10.4517 50.5 8.38655 50.5022 6.3214ZM52.6017 7.94496C52.6499 7.06397 53.4507 6.32799 54.326 6.3214C55.9428 6.3192 57.5596 6.3214 59.1743 6.3214C59.1787 8.74246 59.1765 11.1635 59.1765 13.5846C59.1721 14.2634 58.7465 14.9181 58.1212 15.1884C57.8295 15.3268 57.4982 15.3378 57.1801 15.3312C55.8924 15.329 54.6046 15.3312 53.3169 15.3312C53.0997 14.9115 52.8869 14.4919 52.6785 14.0701C54.2492 14.0679 55.8222 14.0723 57.3951 14.0679C57.6584 14.0877 57.9019 13.8416 57.8887 13.578C57.8909 11.5875 57.8865 9.59708 57.8909 7.60662C56.7063 7.61102 55.5238 7.60443 54.3414 7.60882C54.0869 7.59784 53.8631 7.83731 53.8675 8.08776C53.8631 8.96874 53.8653 9.85193 53.8675 10.7329C53.8543 10.9856 54.0715 11.2404 54.3326 11.2272C55.0543 11.2426 55.7761 11.2053 56.4978 11.2448C56.7743 11.6666 57.0595 12.0862 57.3315 12.5125C56.3048 12.519 55.2803 12.519 54.2558 12.5125C53.3717 12.4773 52.5951 11.6908 52.5973 10.801C52.5973 9.84973 52.5907 8.89844 52.6017 7.94496ZM59.8631 6.3214C60.2887 6.3214 60.7143 6.3192 61.1399 6.32359C61.1421 8.38655 61.1421 10.4517 61.1399 12.5147C60.7143 12.5169 60.2887 12.5169 59.8631 12.5169C59.8609 10.4517 59.8609 8.38655 59.8631 6.3214ZM65.9794 6.33238C67.9911 6.32359 70.0028 6.317 72.0123 6.3214C72.688 6.32579 73.3373 6.74541 73.6116 7.36496C73.7936 7.75162 73.7805 8.18882 73.7761 8.60624C73.7739 9.90905 73.7761 11.2119 73.7739 12.5147C71.8214 12.519 69.869 12.5169 67.9165 12.5169C67.2145 12.519 66.5432 12.0555 66.2887 11.4008C66.1198 11.0009 66.1856 10.5594 66.1746 10.1375C66.1593 9.44549 66.6244 8.78859 67.2606 8.53374C67.6269 8.36677 68.0372 8.41071 68.4298 8.40632C69.2986 8.41071 70.1673 8.39973 71.0361 8.41071C71.3739 8.79518 71.6284 9.24996 71.9289 9.66958C70.5907 9.66738 69.2525 9.66518 67.9143 9.66958C67.6357 9.66299 67.4141 9.942 67.4404 10.2122C67.447 10.4517 67.4119 10.7 67.4755 10.935C67.5436 11.1086 67.7234 11.2404 67.9143 11.2272C69.439 11.2294 70.9637 11.2294 72.4905 11.2272C72.4861 10.1859 72.4905 9.14231 72.4883 8.09874C72.5081 7.83731 72.269 7.59124 72.0057 7.60882C70.2792 7.60443 68.5549 7.61541 66.8284 7.59124C66.5015 7.20897 66.2624 6.74981 65.9794 6.33238Z" fill="#30505C"/>
</svg>
