<svg width="41" height="18" viewBox="0 0 41 18" fill="none" xmlns="http://www.w3.org/2000/svg">
<path fill-rule="evenodd" clip-rule="evenodd" d="M24.3911 7.89067C24.3911 7.82763 24.3288 7.76465 24.2665 7.76465H23.0404C22.9781 7.76465 22.9158 7.82763 22.9158 7.89067C22.9158 8.83546 22.9158 9.78031 22.9158 10.7252C22.9158 11.0401 22.8742 11.355 22.8326 11.649C22.7703 12.048 22.6248 12.3839 22.3755 12.6988C21.8975 13.2447 21.1079 13.3707 20.4222 13.3707H20.3182H20.2767C20.2143 13.3707 20.152 13.4337 20.152 13.4967V15.0504C20.152 15.1134 20.2143 15.1764 20.2767 15.1764H20.63C20.6507 15.1764 20.6507 15.1764 20.6507 15.1764C21.1494 15.1554 21.6689 15.0714 22.1469 14.8824C22.6456 14.6935 23.082 14.3995 23.4353 13.9796C23.7678 13.6017 23.9755 13.0978 24.1002 12.6358C24.2665 12.006 24.3496 11.376 24.3496 10.7252C24.4119 9.78031 24.3911 8.83546 24.3911 7.89067Z" fill="#0092FF"/>
<path fill-rule="evenodd" clip-rule="evenodd" d="M1.32145 7.9506C1.68972 8.24057 2.05799 8.55132 2.44793 8.84129C2.59957 8.98634 2.75121 9.15204 2.79454 9.33851C2.8162 9.44207 2.83786 9.54563 2.8162 9.64919C2.75121 10.0221 2.44793 10.2085 2.10132 10.2913C1.55974 10.4364 0.996504 10.4571 0.454926 10.4778C0.4116 10.4778 0.368272 10.4778 0.324946 10.4778C0.259957 10.4985 0.173304 10.4778 0.151641 10.4778C0.0649883 10.4778 0 10.5399 0 10.6228V12.0314C0 12.1143 0.0649883 12.1764 0.151641 12.1764C0.303283 12.1764 0.454923 12.1764 0.628225 12.1764C0.779868 12.1764 0.953179 12.1557 1.10482 12.1557C1.60307 12.135 2.10132 12.0728 2.57791 11.9486C3.03283 11.8242 3.44443 11.6378 3.76937 11.3064C4.07265 11.0164 4.28929 10.6642 4.37594 10.2499C4.41926 10.0428 4.41926 9.85638 4.41926 9.64919C4.3976 9.44207 4.37594 9.2556 4.31095 9.04847C4.28929 8.94491 4.24596 8.86206 4.20263 8.75844C4.02933 8.34419 3.74771 7.97131 3.4011 7.68128C3.20613 7.53629 2.9895 7.37059 2.8162 7.20484C2.64289 7.03914 2.44793 6.87344 2.25296 6.72839C2.20963 6.68697 2.12298 6.70768 2.07965 6.7491L1.27812 7.7227C1.2348 7.76413 1.25646 7.84704 1.29978 7.88846L1.32145 7.9506Z" fill="#0092FF"/>
<path fill-rule="evenodd" clip-rule="evenodd" d="M14.3184 5.29419H15.5557C15.6441 5.29419 15.7325 5.35595 15.7325 5.45888V12.5413C15.7325 12.6236 15.6663 12.706 15.5557 12.706H14.3184C14.23 12.706 14.1416 12.6442 14.1416 12.5413V5.45888C14.1416 5.37653 14.2079 5.29419 14.3184 5.29419Z" fill="#0092FF"/>
<path fill-rule="evenodd" clip-rule="evenodd" d="M6.89387 7.89067C6.89387 7.82763 6.82889 7.76465 6.76391 7.76465H5.48577C5.42078 7.76465 5.35579 7.82763 5.35579 7.89067C5.35579 8.83546 5.35579 9.78031 5.35579 10.7252C5.35579 11.0401 5.31247 11.355 5.26914 11.649C5.20415 12.048 5.05251 12.3839 4.79255 12.6988C4.29431 13.2447 3.47111 13.3707 2.75623 13.3707H2.64791H2.60459C2.5396 13.3707 2.47461 13.4337 2.47461 13.4967V15.0504C2.47461 15.1134 2.5396 15.1764 2.60459 15.1764H2.97286C2.99452 15.1764 2.99452 15.1764 2.99452 15.1764C3.51443 15.1554 4.05601 15.0714 4.55426 14.8824C5.07418 14.6935 5.5291 14.3995 5.89736 13.9796C6.244 13.6017 6.46063 13.0978 6.59059 12.6358C6.76391 12.006 6.85057 11.376 6.85057 10.7252C6.89387 9.78031 6.89387 8.83546 6.89387 7.89067Z" fill="#0092FF"/>
<path fill-rule="evenodd" clip-rule="evenodd" d="M15.9832 4.17116C16.1338 4.17116 16.2629 4.04677 16.2629 3.88093V3.11377C16.2629 2.96866 16.1338 2.82349 15.9832 2.82349H14.4768C13.8743 2.82349 13.1427 2.90647 12.6693 3.30035C12.4541 3.46626 12.2819 3.67356 12.1528 3.92239C12.1098 4.00531 12.0883 4.0675 12.0453 4.15043C12.0022 4.23335 12.0237 4.31627 12.0453 4.37846C12.0883 4.46145 12.1528 4.50291 12.2389 4.52364L13.0566 4.75168C13.1857 4.79314 13.3149 4.73095 13.3794 4.62729C13.4655 4.50291 13.5946 4.39925 13.7452 4.31627C13.9604 4.21262 14.2186 4.17116 14.4553 4.17116H15.9832Z" fill="#0092FF"/>
<path fill-rule="evenodd" clip-rule="evenodd" d="M9.4952 6.85298C9.75279 6.76892 10.0319 6.70581 10.311 6.70581C11.1053 6.70581 11.7494 6.97908 12.2861 7.58862C12.9087 8.26126 13.0805 8.99689 13.0805 9.87969C13.0805 9.94607 13.0805 10.0119 13.0806 10.0771C13.082 10.9813 13.0831 11.7747 12.8228 12.6962C12.6725 13.1586 12.4793 13.663 12.1358 14.0204C11.7708 14.4198 11.3415 14.714 10.8262 14.9032C10.3539 15.0713 9.83868 15.1554 9.32343 15.1764H9.30195H8.93699C8.87259 15.1764 8.80819 15.1133 8.80819 15.0503V13.5369C8.80819 13.4739 8.87259 13.4108 8.93699 13.4108H8.97996H9.06578C9.75279 13.4108 10.5472 13.3058 11.0409 12.7592C11.1697 12.5911 11.2771 12.4019 11.363 12.2127L11.3844 12.1497H11.32C11.1774 12.1497 11.0333 12.1533 10.8887 12.1569C10.2498 12.1727 9.60061 12.1889 9.02287 11.8975C8.63643 11.7083 8.33586 11.4351 8.12118 11.0777C7.86359 10.6784 7.77771 10.216 7.77771 9.75353C7.77771 9.24908 7.82062 8.68158 8.0353 8.21916C8.18558 7.8829 8.40026 7.5676 8.6794 7.3154C8.91556 7.10518 9.19464 6.95806 9.4952 6.85298ZM11.5992 9.41727C11.5992 8.78672 11.0625 8.26125 10.4184 8.26125C9.77434 8.26125 9.23767 8.78672 9.23767 9.41727C9.23767 10.0478 9.77434 10.5733 10.4184 10.5733C11.0625 10.5733 11.5992 10.0478 11.5992 9.41727Z" fill="#0092FF"/>
<path fill-rule="evenodd" clip-rule="evenodd" d="M17.8618 8.05014L19.193 6.88232L19.4077 7.10383C19.6331 7.33537 19.8639 7.57188 20.0946 7.80844C20.3255 8.04506 20.5563 8.28162 20.7818 8.51322L21.1682 8.93605C21.297 9.0971 21.4258 9.25816 21.5332 9.41927C21.7694 9.78164 21.9197 10.1843 21.9197 10.6273C21.9197 10.9897 21.8553 11.3723 21.662 11.7145C21.5332 11.9561 21.34 12.1575 21.1253 12.3387C20.61 12.7414 19.923 12.8823 19.2574 12.8823C18.5919 12.8823 17.9263 12.7414 17.3895 12.3387C17.1748 12.1776 17.003 11.9763 16.8742 11.7346C16.7025 11.3924 16.6166 11.03 16.6166 10.6474C16.6166 9.86222 17.003 9.17763 17.5612 8.59375L17.9692 8.1508L17.8618 8.05014ZM20.4595 10.3856C20.4595 9.78164 19.9228 9.27829 19.2786 9.27829C18.613 9.27829 18.0978 9.7615 18.0978 10.3856C18.0978 10.9897 18.6345 11.4931 19.2786 11.4931C19.9228 11.4931 20.4595 10.9897 20.4595 10.3856Z" fill="#0092FF"/>
<path d="M35.7496 12.8338L36.5113 13.6051C36.9924 14.0796 37.273 14.7322 37.273 15.4243C37.273 16.1164 36.9924 16.769 36.5113 17.2436C35.489 18.2521 33.8452 18.2521 32.8228 17.2436C32.3417 16.769 32.0611 16.1164 32.0611 15.4243C32.0611 14.7322 32.3417 14.0796 32.8228 13.6051L33.1035 13.3282L35.048 11.41L37.7341 8.76021C38.556 7.94945 38.997 6.88161 38.997 5.73467C38.997 4.60754 38.536 3.51991 37.7341 2.70915C36.9122 1.89838 35.8297 1.46333 34.667 1.46333C33.5244 1.46333 32.4219 1.91816 31.6 2.70915C30.7781 3.51991 30.317 4.60753 30.3371 5.77424C30.3571 6.90142 30.8182 7.98902 31.6401 8.78002L33.5846 10.7179L32.5021 11.7858L30.5175 9.82805C29.415 8.74045 28.8136 7.27713 28.8136 5.75448C28.8136 4.21202 29.435 2.76847 30.5175 1.68086C31.6201 0.593245 33.1035 0 34.647 0C36.2106 0 37.674 0.613019 38.7765 1.68086C39.8791 2.76847 40.4805 4.23182 40.4805 5.75448C40.4805 7.2969 39.859 8.74045 38.7765 9.82805L35.7496 12.8338ZM33.9053 16.1758C34.3263 16.591 35.0279 16.591 35.4489 16.1758C35.6493 15.978 35.7696 15.7012 35.7696 15.4046C35.7696 15.1079 35.6493 14.8509 35.4489 14.6333L34.6871 13.8621L33.9053 14.6136C33.7049 14.8113 33.5846 15.0881 33.5846 15.3848C33.5846 15.7012 33.6848 15.9582 33.9053 16.1758Z" fill="#0092FF"/>
</svg>
