<svg width="57" height="18" viewBox="0 0 57 18" fill="none" xmlns="http://www.w3.org/2000/svg">
<path d="M15.2896 10.5634C15.2896 11.0704 15.2051 11.3239 15.0362 11.493C14.8673 11.662 14.5294 11.7465 14.0225 11.7465H1.35157H0V12.9296H14.0225C14.7828 12.9296 15.3741 12.8451 15.712 12.5915C16.2188 12.2535 16.4722 11.5775 16.4722 10.5634V5.40845H15.2896V10.5634Z" fill="#D42428"/>
<path d="M8.27808 14.0281C7.94019 14.0281 7.68677 14.1126 7.51782 14.3661C7.2644 14.5351 7.17993 14.7886 7.17993 15.0422C7.17993 15.3802 7.2644 15.6337 7.51782 15.8027C7.68677 15.9717 7.94019 16.1408 8.27808 16.1408C8.5315 16.1408 8.78492 16.0562 9.03834 15.8027C9.29176 15.6337 9.37623 15.3802 9.37623 15.0422C9.37623 14.7886 9.29176 14.5351 9.03834 14.2816C8.78492 14.1126 8.5315 14.0281 8.27808 14.0281Z" fill="#D42428"/>
<path d="M27.2847 4.22534C26.3555 4.22534 25.6797 4.73238 25.2573 5.74647C24.9194 6.59154 24.7505 7.60562 24.7505 8.87323C24.7505 10.1408 24.9194 11.1549 25.1729 12C23.9058 12.4225 23.3145 13.4366 23.3145 15.1268C23.3145 15.8028 23.5679 16.9859 23.8213 18H25.0884C24.7505 16.9859 24.4971 15.8873 24.4971 15.2113C24.4971 13.7746 25.2573 13.0141 26.6934 13.0141H27.7915C28.5518 13.0141 29.1431 12.9296 29.481 12.676C29.9878 12.338 30.2412 11.5775 30.2412 10.5634V10.3944C30.2412 8.70422 29.9878 7.2676 29.481 6.169C28.8897 4.81689 28.2139 4.22534 27.2847 4.22534ZM28.9741 10.5634C28.9741 10.9859 28.8897 11.3239 28.7207 11.4929C28.5518 11.662 28.2139 11.7465 27.7071 11.7465H26.271C26.0176 11.2394 25.7642 10.3098 25.7642 8.87323C25.7642 7.94365 25.8486 7.18309 26.1021 6.50703C26.3555 5.83098 26.7778 5.49295 27.2002 5.49295C27.7915 5.49295 28.2139 6.0845 28.5518 7.3521C28.8052 8.36619 28.9741 9.38027 28.9741 10.3944V10.5634Z" fill="#D42428"/>
<path d="M18.9221 14.0281C18.6687 14.0281 18.4153 14.1126 18.1619 14.3661C17.9929 14.5351 17.824 14.7886 17.824 15.1267C17.824 15.3802 17.9084 15.6337 18.1619 15.8872C18.3308 16.0562 18.5842 16.2253 18.9221 16.2253C19.1755 16.2253 19.429 16.1408 19.6824 15.8872C19.8513 15.7182 20.0203 15.4647 20.0203 15.1267C20.0203 14.8731 19.9358 14.6196 19.6824 14.3661C19.5134 14.1126 19.26 14.0281 18.9221 14.0281Z" fill="#D42428"/>
<path d="M21.4561 4.22535H20.1045C20.9492 6.33803 21.4561 8.28169 21.4561 10.1408V10.5634C21.4561 11.0704 21.3716 11.3239 21.2027 11.493C21.0337 11.662 20.6958 11.7465 20.2735 11.7465H19.5132C19.1753 11.7465 18.9219 11.662 18.8374 11.493C18.6685 11.3239 18.584 10.9859 18.584 10.5634V0L17.3169 1.1831V10.5634C17.3169 11.5775 17.5703 12.338 18.0772 12.6761C18.415 12.9296 19.0064 13.0141 19.7666 13.0141H20.3579C21.0337 13.0141 21.5405 12.8451 21.794 12.6761C22.3008 12.338 22.5542 11.5775 22.5542 10.5634V10.1408C22.6387 8.28169 22.2163 6.33803 21.4561 4.22535Z" fill="#D42428"/>
<path d="M21.2029 14.0281C20.9495 14.0281 20.696 14.1126 20.4426 14.3661C20.2737 14.5351 20.1047 14.7886 20.1047 15.1267C20.1047 15.3802 20.1892 15.6337 20.4426 15.8872C20.6116 16.0562 20.865 16.2253 21.2029 16.2253C21.4563 16.2253 21.7097 16.1408 21.9631 15.8872C22.1321 15.7182 22.301 15.4647 22.301 15.1267C22.301 14.8731 22.2166 14.6196 21.9631 14.3661C21.7097 14.1126 21.4563 14.0281 21.2029 14.0281Z" fill="#D42428"/>
<path d="M56.9347 0H54.316L55.1608 0.84507L44.6861 10.1408L42.5743 8.11268C40.0401 9.6338 38.4351 12.169 38.4351 12.169C37.3369 13.7746 37.5059 14.2817 37.5059 14.2817V14.4507V14.6197V14.7887C36.3233 14.3662 35.563 13.7746 35.2251 13.0986H35.9009H36.0698H36.3233C37.6748 13.0986 38.3506 12.2535 38.3506 10.5634V10.0563C38.3506 6.08451 37.7593 4.05634 36.4922 4.05634C35.732 4.05634 34.9717 4.7324 34.2959 6C33.6201 7.1831 33.3667 8.4507 33.3667 9.6338C33.3667 10.5634 33.4512 11.4085 33.6201 11.9155H33.5357C33.0288 11.9155 32.6909 11.831 32.522 11.662C32.353 11.493 32.2686 11.1549 32.2686 10.7324V0L31.0859 1.1831V10.5634C31.0859 11.5775 31.3394 12.338 31.8462 12.6761C32.0996 12.8451 32.522 13.0141 33.1133 13.0141H33.5357H34.0425C34.3804 13.8592 34.8872 14.5352 35.6475 15.1268C36.4077 15.7183 37.3369 16.0563 38.3506 16.1408L38.8575 15.2958V14.4507V14.2817C38.8575 13.8592 39.2798 13.1831 39.4488 12.9296C40.5469 11.0704 42.4898 9.71831 42.4898 9.71831L44.7706 11.9155L55.921 1.52113L56.9347 2.53521V0ZM34.8028 11.831C34.6338 11.4085 34.4649 10.7324 34.4649 9.80282C34.4649 8.95775 34.6338 8.02817 35.0562 7.01409C35.4785 6 35.9009 5.49296 36.2388 5.49296C36.7456 5.49296 36.9991 6.92958 36.9991 9.80282V10.4789C36.9991 10.9859 36.9146 11.2394 36.8301 11.4085C36.6612 11.662 36.3233 11.7465 35.9009 11.7465H34.8028V11.831Z" fill="#D42428"/>
</svg>
