<svg width="59" height="18" viewBox="0 0 59 18" fill="none" xmlns="http://www.w3.org/2000/svg">
<path d="M9 18C13.9706 18 18 13.9706 18 9C18 4.02944 13.9706 0 9 0C4.02944 0 0 4.02944 0 9C0 13.9706 4.02944 18 9 18Z" fill="#4EA4F6"/>
<path d="M3.74573 8.92192C3.74573 8.92192 8.24573 7.0751 9.80642 6.42481C10.4047 6.1647 12.4336 5.33233 12.4336 5.33233C12.4336 5.33233 13.37 4.96817 13.292 5.85256C13.266 6.21672 13.0579 7.49129 12.8498 8.8699C12.5376 10.8208 12.1995 12.9537 12.1995 12.9537C12.1995 12.9537 12.1475 13.552 11.7053 13.656C11.2631 13.7601 10.5347 13.2919 10.4047 13.1878C10.3006 13.1098 8.45382 11.9393 7.77752 11.367C7.59544 11.2109 7.38735 10.8988 7.80353 10.5346C8.73995 9.67626 9.85845 8.60979 10.5347 7.93349C10.8469 7.62135 11.159 6.89302 9.85845 7.77742C8.01163 9.05198 6.19082 10.2485 6.19082 10.2485C6.19082 10.2485 5.77463 10.5086 4.99429 10.2745C4.21394 10.0404 3.30353 9.72828 3.30353 9.72828C3.30353 9.72828 2.67926 9.33811 3.74573 8.92192Z" fill="white"/>
<path d="M39.2638 13.2782C39.0014 13.2299 38.7518 13.1568 38.4972 13.0808C38.4953 12.8133 38.5188 12.5353 38.5698 12.2815C40.8578 12.9418 41.3879 12.5095 41.4269 11.0464V10.6949L41.1315 10.9649C40.7471 11.3162 40.3708 11.4417 39.8101 11.4057C38.6962 11.3342 38.0793 10.5198 38.0775 9.11813C38.0764 8.27998 38.2616 7.74753 38.7277 7.24928C39.3494 6.58466 40.4133 6.45683 41.1571 6.95743L41.4269 7.13897V6.94887V6.75878L41.906 6.77464L42.3852 6.79052L42.401 8.67979C42.4257 11.6253 42.3395 12.2005 41.7894 12.761C41.0518 13.3836 40.2982 13.3814 39.2638 13.2782ZM40.7134 10.3781C40.8408 10.3131 41.0534 10.16 41.1859 10.0379L41.4269 9.81573V8.89662V7.97752L41.2553 7.83314C40.6681 7.33908 40.0369 7.30151 39.5602 7.73223C39.251 8.01154 39.1148 8.41477 39.1107 9.06301C39.1056 9.84598 39.2743 10.2425 39.6965 10.4406C39.9762 10.5719 40.3825 10.5469 40.7134 10.3781ZM26.8559 10.9983C26.2962 10.4644 26.0328 9.6281 26.1448 8.74101C26.2359 8.02041 26.4557 7.55054 26.888 7.15202C27.231 6.83588 27.5532 6.70299 28.0612 6.66816C29.2984 6.58336 30.032 7.42737 30.0356 8.93981L30.0366 9.33681C29.0922 9.36204 28.0123 9.27726 27.1343 9.40901C27.2627 10.2224 27.8506 10.8304 28.6676 10.8425C29.1585 10.8425 29.5117 10.7179 29.9837 10.6248L29.998 11.3739C29.998 11.3739 28.8957 11.6356 28.476 11.6325C27.8317 11.6351 27.22 11.3426 26.8559 10.9983ZM29.0505 8.41958C29.0495 7.95324 28.7462 7.51523 28.3761 7.44578C27.7919 7.33619 27.3442 7.67484 27.1974 8.33743L27.1459 8.57015H28.0984H29.0509L29.0505 8.41958ZM34.0296 10.9983C33.4699 10.4644 33.2065 9.6281 33.3186 8.74101C33.4096 8.02041 33.6294 7.55054 34.0617 7.15202C34.4047 6.83588 34.7269 6.70299 35.2349 6.66816C36.4721 6.58336 37.2057 7.42737 37.2093 8.93981L37.2104 9.33681C36.2024 9.3238 35.2368 9.32797 34.2826 9.32017C34.3395 10.2806 34.9601 10.8922 35.8413 10.8425C36.3368 10.8521 36.7718 10.7172 37.1574 10.6249C37.2431 10.6779 37.2222 11.2851 37.1321 11.3598C37.0077 11.4631 36.0695 11.6357 35.6497 11.6325C35.0054 11.6351 34.3937 11.3426 34.0296 10.9983ZM36.2243 8.41958C36.2232 7.95324 35.92 7.51523 35.5498 7.44578C34.9656 7.33619 34.5179 7.67484 34.3711 8.33743L34.3196 8.57015H35.2721H36.2246L36.2243 8.41958ZM47.7106 11.562C47.0253 11.3063 46.6879 10.5693 46.9126 9.81913C47.0025 9.51924 47.3457 9.15035 47.6931 8.98039C48.0216 8.81966 48.6862 8.68445 49.1619 8.68156L49.4768 8.67899V8.29295C49.4583 7.25004 48.6341 7.31787 47.8209 7.61313C47.6022 7.69184 47.3166 7.7569 47.2639 7.77321C47.2571 7.52854 47.2316 7.3605 47.2316 6.98615L47.6833 6.84321C47.9844 6.74796 48.3182 6.68985 48.6839 6.66902C49.5621 6.61897 50.0368 6.81158 50.3142 7.33053C50.4282 7.54385 50.4364 7.64186 50.4624 9.09908C50.4898 10.6391 50.4901 10.642 50.6226 10.783C50.7021 10.8676 50.9929 10.9496 51.0821 10.9496C51.0795 11.2711 51.1167 11.258 51.0779 11.5595C50.9501 11.5939 50.5253 11.6367 50.3667 11.6236C50.0564 11.5978 49.8641 11.4677 49.7161 11.1833L49.6373 11.0317L49.4338 11.1945C48.9644 11.5702 48.1814 11.7369 47.7107 11.5613L47.7106 11.562ZM48.8611 10.7379C48.9819 10.6953 49.1695 10.6029 49.2781 10.5326L49.4754 10.4047V9.84338V9.28207H49.2405C48.6881 9.28207 48.0302 9.56552 47.8952 9.86161C47.7466 10.1878 47.871 10.5755 48.172 10.7238C48.396 10.8342 48.5765 10.8379 48.8598 10.7378L48.8611 10.7379ZM22.5343 8.67969V5.83209H21.4117H20.2891V5.44876V5.06546H23.0545H25.8199V5.44876V5.83209H24.6973H23.5747V8.67969V11.5273H23.0545H22.5343V8.67969ZM31.2413 8.10469V4.68213H31.7341H32.227V8.10469V11.5273H31.7341H31.2413V8.10469ZM43.7816 9.14515V6.75878C44.1011 6.76945 44.4332 6.75462 44.7526 6.76502C44.7495 6.96206 44.7612 7.15834 44.7727 7.35485C45.2219 6.86121 45.6985 6.73417 46.0974 6.69164L46.4649 6.65354V7.12294V7.59238C45.8487 7.41147 45.2065 7.81873 44.9129 8.21423C44.8001 8.37095 44.7934 8.45045 44.7673 9.93925L44.7399 11.4999C44.4205 11.5106 44.101 11.521 43.7816 11.5317L43.7816 9.14515ZM51.941 9.14515V6.76305C52.2696 6.76305 52.5982 6.76305 52.9267 6.76305C52.9267 6.98113 52.9267 7.36179 52.9267 7.57987C53.3424 7.11252 53.8456 6.67254 54.4053 6.68089C55.0897 6.65402 55.37 7.09638 55.6754 7.58727C56.5311 6.62372 58.0919 6.34678 58.5742 7.49285C58.6206 9.05802 58.5937 9.63881 58.569 11.5254C58.2514 11.5361 57.9592 11.5212 57.6415 11.5316C57.6561 10.3141 57.6384 8.93776 57.6087 7.79453C57.4869 7.55494 57.2608 7.36667 56.871 7.4697C56.4812 7.57276 56.1286 7.87608 55.7615 8.30441C55.7615 9.36605 55.7742 10.4658 55.7742 11.5275H55.2835H54.7927C54.7823 10.2832 54.7716 9.03885 54.7611 7.79456C54.5643 7.56688 54.4073 7.43358 54.0355 7.52217C53.6638 7.61074 53.1699 7.9046 52.9267 8.37096C52.9267 9.4231 52.9139 10.4753 52.9139 11.5275C52.5854 11.5275 52.2695 11.5275 51.9409 11.5275C51.9409 10.7334 51.941 9.93928 51.941 9.14515Z" fill="#4EA4F6"/>
</svg>
