<svg width="141" height="18" viewBox="0 0 141 18" fill="none" xmlns="http://www.w3.org/2000/svg">
<path d="M13.2506 16.4281H6.62532V6.3887H0V0H13.2506V16.4281ZM26.5013 16.4281H18.9295L26.0281 0H33.5999L26.5013 16.4281Z" fill="black"/>
<path d="M18.9299 7.30138C21.0208 7.30138 22.7158 5.66691 22.7158 3.65069C22.7158 1.63447 21.0208 0 18.9299 0C16.839 0 15.144 1.63447 15.144 3.65069C15.144 5.66691 16.839 7.30138 18.9299 7.30138Z" fill="black"/>
<path d="M40.3149 14.1129H42.9428V3.81641H46.3807V1.33263H36.9126V3.81712H40.3149V14.1129ZM46.3842 14.1129H48.8502V9.81115C48.8502 8.3169 49.624 7.4168 50.7953 7.4168C51.2084 7.4168 51.5328 7.4885 51.9104 7.61485V5.11261C51.6416 5.03487 51.3625 4.99849 51.0827 5.00471C50.0747 5.00471 49.1569 5.67056 48.8502 6.5522V5.11332H46.3842V14.1129ZM56.6438 14.3109C57.886 14.3109 58.8216 13.6806 59.2362 13.1042V14.1122H61.7022V5.11332H59.2362V6.12132C58.8216 5.54562 57.886 4.91527 56.6438 4.91527C54.2501 4.91527 52.4137 7.07536 52.4137 9.6131C52.4137 12.1515 54.2501 14.3116 56.6445 14.3116L56.6438 14.3109ZM57.1662 12.0607C55.7976 12.0607 54.8975 11.0349 54.8975 9.6131C54.8975 8.19055 55.7976 7.16409 57.1662 7.16409C58.5341 7.16409 59.4342 8.19055 59.4342 9.6131C59.4342 11.0349 58.5341 12.0607 57.1662 12.0607ZM67.5734 14.3109C68.8157 14.3109 69.7513 13.6806 70.1651 13.1042V14.1122H72.6311V0.613543H70.1651V6.12203C69.7513 5.54562 68.8157 4.91527 67.5734 4.91527C65.1791 4.91527 63.3427 7.07536 63.3427 9.6131C63.3427 12.1515 65.1791 14.3116 67.5734 14.3116V14.3109ZM68.0952 12.0607C66.7273 12.0607 65.8272 11.0349 65.8272 9.6131C65.8272 8.19055 66.7273 7.16409 68.0952 7.16409C69.463 7.16409 70.3631 8.19055 70.3631 9.6131C70.3631 11.0349 69.463 12.0607 68.0952 12.0607ZM76.0725 3.74046C76.2795 3.74224 76.4848 3.70308 76.6767 3.62524C76.8685 3.54741 77.0431 3.43242 77.1903 3.2869C77.3375 3.14137 77.4546 2.96818 77.5346 2.77728C77.6147 2.58638 77.6563 2.38153 77.6569 2.17452C77.6563 1.9675 77.6147 1.76265 77.5346 1.57175C77.4546 1.38085 77.3375 1.20766 77.1903 1.06214C77.0431 0.916613 76.8685 0.801627 76.6767 0.723789C76.4848 0.645951 76.2795 0.606795 76.0725 0.608574C75.6582 0.611913 75.2619 0.777969 74.9689 1.07092C74.676 1.36387 74.5099 1.76024 74.5066 2.17452C74.5099 2.5888 74.676 2.98516 74.9689 3.27811C75.2619 3.57106 75.6582 3.73712 76.0725 3.74046ZM74.8487 14.1129H77.3148V5.21554H74.8487V14.1129ZM79.5025 14.1129H81.9686V9.721C81.9686 7.9925 82.8147 7.1648 83.9668 7.1648C84.9926 7.1648 85.5512 7.957 85.5512 9.25249V14.1129H88.0173V8.83864C88.0173 6.49896 86.7211 4.91456 84.5432 4.91456C83.3727 4.91456 82.4548 5.41856 81.9686 6.13835V5.11261H79.5025V14.1129ZM94.2924 11.7178C93.0501 11.7178 92.0067 10.7815 92.0067 9.41363C92.0067 8.02799 93.0501 7.10944 94.2924 7.10944C95.5346 7.10944 96.5781 8.02799 96.5781 9.41363C96.5781 10.7815 95.5346 11.7178 94.2924 11.7178ZM94.0042 18C96.7584 18 98.8468 16.596 98.8468 13.3555V5.05795H96.3808V6.06595C95.8945 5.36461 94.922 4.86061 93.7707 4.86061C91.4125 4.86061 89.5222 6.8766 89.5222 9.41434C89.5222 11.9343 91.4125 13.9503 93.7707 13.9503C94.9227 13.9503 95.8945 13.4286 96.3808 12.7627V13.3746C96.3808 14.8149 95.4267 15.8407 93.9687 15.8407C92.9607 15.8407 91.9527 15.4985 91.1605 14.7248L89.8104 16.5605C90.8361 17.5507 92.4383 18 94.0042 18ZM104.061 14.1129H106.382L111.675 1.33263H108.795L105.231 10.2065L101.612 1.33263H98.7865L104.061 14.1129ZM113.938 3.63682C114.145 3.6385 114.35 3.59928 114.542 3.5214C114.733 3.44352 114.908 3.32852 115.055 3.183C115.202 3.03749 115.319 2.86433 115.399 2.67348C115.479 2.48262 115.521 2.27783 115.521 2.07088C115.521 1.86392 115.479 1.65913 115.399 1.46828C115.319 1.27742 115.202 1.10426 115.055 0.958751C114.908 0.813237 114.733 0.698236 114.542 0.620356C114.35 0.542475 114.145 0.50325 113.938 0.504935C113.092 0.504935 112.371 1.20627 112.371 2.07088C112.371 2.93477 113.092 3.63682 113.938 3.63682ZM112.713 14.1129H115.179V5.11261H112.713V14.1129ZM121.562 14.3109C123.451 14.3109 124.891 13.5187 125.738 12.2949L123.901 10.927C123.487 11.5567 122.714 12.0607 121.579 12.0607C120.392 12.0607 119.33 11.3948 119.186 10.1888H125.917C125.971 9.81044 125.953 9.55844 125.953 9.34264C125.953 6.40881 123.883 4.91456 121.525 4.91456C118.79 4.91456 116.791 6.9483 116.791 9.61239C116.791 12.4568 118.88 14.3109 121.562 14.3109ZM119.275 8.51495C119.509 7.4168 120.535 6.9483 121.454 6.9483C122.371 6.9483 123.272 7.43455 123.487 8.51495H119.275ZM135.192 14.1129H137.64L140.61 5.11261H137.964L136.273 10.8724L134.436 5.11261H132.547L130.729 10.8724L129.019 5.11261H126.39L129.378 14.1129H131.826L133.501 9.00049L135.192 14.1129Z" fill="black"/>
</svg>
